<!--?xml version="1.0" standalone="no"?-->
              <svg id="sw-js-blob-svg" viewBox="0 0 100 100" xmlns="http://www.w3.org/2000/svg" version="1.1">
                    <defs> 
                        <linearGradient id="sw-gradient" x1="0" x2="1" y1="1" y2="0">
                            <stop id="stop1" stop-color="rgba(155, 171, 202, 0.33)" offset="0%"></stop>
                            <stop id="stop2" stop-color="rgba(155, 171, 202, 0.42)" offset="100%"></stop>
                        </linearGradient>
                    </defs>
                <path fill="url(#sw-gradient)" d="M24.7,-33.4C31.4,-29.1,35.9,-21.1,39,-12.4C42.2,-3.8,44.1,5.6,41.3,13.2C38.5,20.7,31,26.6,23.3,30.2C15.7,33.8,7.8,35.3,-0.5,36C-8.9,36.7,-17.8,36.7,-24.7,32.8C-31.6,28.9,-36.6,21.2,-40,12.5C-43.4,3.9,-45.3,-5.7,-41.8,-12.7C-38.3,-19.6,-29.4,-23.9,-21.5,-27.9C-13.7,-31.8,-6.8,-35.3,1.1,-36.8C9,-38.3,18,-37.7,24.7,-33.4Z" width="100%" height="100%" transform="translate(50 50)" stroke-width="0" style="transition: all 0.3s ease 0s;" stroke="url(#sw-gradient)"></path>
              </svg>